Zombieland 2009 BluRay 1080p DTS x264-LoNeWoLf

Source - NTSC BluRay Disc.

Movie has been tested and is DXVA Compliant



General Information:

RUNTIME........: 1h 27mn
SIZE...........: 8.05 GiB
VIDEO CODEC....: x264 (L4.1)
RESOLUTION.....: 1920x800
BITRATE........: Overall bit rate : 11.6 Mbps 
FRAMERATE......: 23.976 fps
AUDIO 1........: English DTS 6 Channel 1510 Kbps
SUBTITLES......: English, French
CHAPTERS.......: YES
SOURCE.........: NTSC Blu-ray 
ENCODED DATE...: UTC 2011-01-15 14:33:19
Encoder........: TequilaBob a.k.a. bobnjeff a.k.a. LoNeWoLf
GENRE..........: Action , Adventure , Comedy , Horror 
RATING.........: 7.8/10 X  Users: 7.8/10 (92,477 votes) 424 reviews | Critics: 366 reviews 
IMDB link......: http://www.imdb.com/title/tt1156398/


Rated R for horror violence/gore and language.

Release Date:2 October 2009 (USA)


Storyline
Searching for family. In the early twenty-first century, zombies have taken over America. A shy and inexperienced college student in Texas has survived by following his 30 rules: such as "look in the back seat," "shoot twice," "avoid public restrooms." He decides to travel to Ohio to see if his parents are alive. He gets a ride with a boisterous zombie-hating good-old boy headed for Florida, and soon they confront a young woman whose sister has been bitten by a zombie and wants to be put out of her misery. The sisters were headed to an LA amusement park they've heard is zombie free. Can the kid from Ohio get to his family? And what about rule thirty one?

Cast
Complete credited cast: 
  Jesse Eisenberg  ...  Columbus  
  Woody Harrelson  ...  Tallahassee  
  Emma Stone  ...  Wichita  
  Abigail Breslin  ...  Little Rock  
  Amber Heard  ...  406  
  Bill Murray  ...  Himself  
  Derek Graf  ...  Clown Zombie 

[img]http://torrent-stats.info/97ec/abaa5e9c.png[/img]

See the full size 1920x800 PNG files at the link below
 
http://s1015.photobucket.com/albums/af279/tequila-bob/Zombieland%202009/





Format : Matroska 
File size : 8.05 GiB 
Duration : 1h 27mn 
Overall bit rate : 13.1 Mbps 
Encoded date : UTC 2011-01-15 14:33:19 
Writing application : mkvmerge v4.4.0 ('Die Wiederkehr') built on Oct 31 2010 21:52:48 
Writing library : libebml v1.0.0 + libmatroska v1.0.0 

Video 
ID : 1 
Format : AVC 
Format/Info : Advanced Video Codec 
Format profile : High@L4.1 
Format settings, CABAC : Yes 
Format settings, ReFrames : 4 frames 
Muxing mode : Container profile=Unknown@4.1 
Codec ID : V_MPEG4/ISO/AVC 
Duration : 1h 27mn 
Bit rate : 11.6 Mbps 
Width : 1 920 pixels 
Height : 800 pixels 
Display aspect ratio : 2.40:1 
Frame rate : 23.976 fps 
Color space : YUV 
Chroma subsampling : 4:2:0 
Bit depth : 8 bits 
Scan type : Progressive 
Bits/(Pixel*Frame) : 0.315 
Stream size : 6.96 GiB (87%) 
Writing library : x264 core 98 r1649 c54c47d 
Encoding settings : cabac=1 / ref=5 / deblock=1:-3:-3 / analyse=0x3:0x113 / me=umh / subme=9 / psy=1 / psy_rd=1.00:0.15 / mixed_ref=1 / me_range=32 / chroma_me=1 / trellis=2 / 8x8dct=1 / cqm=0 / deadzone=21,11 / fast_pskip=0 / chroma_qp_offset=-3 / threads=6 / sliced_threads=0 / nr=0 / decimate=1 / interlaced=0 / constrained_intra=0 / bframes=6 / b_pyramid=1 / b_adapt=2 / b_bias=0 / direct=1 / weightb=1 / weightp=2 / keyint=250 / keyint_min=25 / scenecut=40 / intra_refresh=0 / rc_lookahead=100 / rc=2pass / mbtree=1 / bitrate=11599 / ratetol=1.0 / qcomp=0.60 / qpmin=10 / qpmax=51 / qpstep=4 / cplxblur=20.0 / qblur=0.5 / vbv_maxrate=50000 / vbv_bufsize=50000 / ip_ratio=1.40 / aq=1:1.50 / nal_hrd=none 
Language : English 

Audio 
ID : 2 
Format : DTS 
Format/Info : Digital Theater Systems 
Codec ID : A_DTS 
Duration : 1h 27mn 
Bit rate mode : Constant 
Bit rate : 1 510 Kbps 
Channel(s) : 6 channels 
Channel positions : Front: L C R, Side: L R, LFE 
Sampling rate : 48.0 KHz 
Bit depth : 24 bits 
Video delay : 10ms 
Stream size : 947 MiB (11%) 
Title : 3/2+1 
Language : English 

Text 
ID : 3 
Format : PGS 
Codec ID : S_HDMV/PGS 
Codec ID/Info : The same subtitle format used on BDs/HD-DVDs 
Language : English , French


Menu & 22 Chapters




See the full size 1920x800 PNG files at the link below
 
http://s1015.photobucket.com/albums/af279/tequila-bob/Zombieland%202009/


